<svg width="100%" height="100%" id="svg" viewBox="0 0 1440 390" xmlns="http://www.w3.org/2000/svg" class="transition duration-300 ease-in-out delay-150"><defs><linearGradient id="gradient" x1="0%" y1="50%" x2="100%" y2="50%"><stop offset="5%" stop-color="#F78DA7"></stop><stop offset="95%" stop-color="#8ED1FC"></stop></linearGradient></defs><path d="M 0,400 L 0,75 C 45.53074544829954,98.3837169357609 91.06149089659908,121.76743387152182 171,108 C 250.93850910340092,94.23256612847818 365.2847818619031,43.31398144967366 433,40 C 500.7152181380969,36.68601855032634 521.7993816557885,80.97664032978356 582,90 C 642.2006183442115,99.02335967021644 741.5176915149434,72.77945723119204 816,74 C 890.4823084850566,75.22054276880796 940.1298522844384,103.90553074544827 1001,110 C 1061.8701477155616,116.09446925455173 1133.9628993473032,99.59841978701478 1209,90 C 1284.0371006526968,80.40158021298522 1362.0185503263483,77.7007901064926 1440,75 L 1440,400 L 0,400 Z" stroke="none" stroke-width="0" fill="url(#gradient)" fill-opacity="0.4" class="transition-all duration-300 ease-in-out delay-150 path-0"></path><defs><linearGradient id="gradient" x1="0%" y1="50%" x2="100%" y2="50%"><stop offset="5%" stop-color="#F78DA7"></stop><stop offset="95%" stop-color="#8ED1FC"></stop></linearGradient></defs><path d="M 0,400 L 0,175 C 43.78907591892822,177.22535211267606 87.57815183785644,179.45070422535213 169,184 C 250.42184816214356,188.54929577464787 369.47646856750254,195.42253521126761 440,181 C 510.52353143249746,166.57746478873239 532.5159738921334,130.85915492957744 597,141 C 661.4840261078666,151.14084507042256 768.4596358639641,207.14084507042253 844,207 C 919.5403641360359,206.85915492957747 963.6454826520098,150.57746478873236 1025,137 C 1086.3545173479902,123.42253521126763 1164.9584335279972,152.5492957746479 1237,166 C 1309.0415664720028,179.4507042253521 1374.5207832360015,177.22535211267603 1440,175 L 1440,400 L 0,400 Z" stroke="none" stroke-width="0" fill="url(#gradient)" fill-opacity="0.53" class="transition-all duration-300 ease-in-out delay-150 path-1"></path><defs><linearGradient id="gradient" x1="0%" y1="50%" x2="100%" y2="50%"><stop offset="5%" stop-color="#F78DA7"></stop><stop offset="95%" stop-color="#8ED1FC"></stop></linearGradient></defs><path d="M 0,400 L 0,275 C 57.31569907248368,283.6739951906561 114.63139814496736,292.3479903813123 190,302 C 265.36860185503264,311.6520096186877 358.79010649261426,322.282033665407 432,308 C 505.20989350738574,293.717966334593 558.2081758845758,254.52387495705938 616,256 C 673.7918241154242,257.4761250429406 736.3771899690827,299.62246650635524 801,309 C 865.6228100309173,318.37753349364476 932.2830642390932,294.9862590175197 1010,284 C 1087.7169357609068,273.0137409824803 1176.4905530745448,274.4324974235658 1250,275 C 1323.5094469254552,275.5675025764342 1381.7547234627277,275.2837512882171 1440,275 L 1440,400 L 0,400 Z" stroke="none" stroke-width="0" fill="url(#gradient)" fill-opacity="1" class="transition-all duration-300 ease-in-out delay-150 path-2"></path></svg>